<?xml version="1.0" standalone="no"?>
<!DOCTYPE svg PUBLIC "-//W3C//DTD SVG 20010904//EN"
 "http://www.w3.org/TR/2001/REC-SVG-20010904/DTD/svg10.dtd">
<svg version="1.0" xmlns="http://www.w3.org/2000/svg"
 width="700.000000pt" height="446.000000pt" viewBox="0 0 700.000000 446.000000"
 preserveAspectRatio="xMidYMid meet">

<g transform="translate(0.000000,446.000000) scale(0.100000,-0.100000)"
fill="#000000" stroke="none">
<path d="M270 4028 l0 -35 81 -17 c241 -52 422 -146 555 -289 116 -125 180
-270 204 -467 14 -116 14 -2037 -1 -2168 -47 -437 -280 -701 -704 -802 -50
-12 -100 -23 -112 -26 -18 -3 -23 -11 -23 -36 l0 -31 168 7 c302 12 1045 36
1135 36 l87 0 0 1905 0 1905 -22 4 c-13 3 -178 7 -368 10 -354 6 -771 20 -917
32 l-83 6 0 -34z"/>
<path d="M2673 4037 l-523 -21 0 -1906 0 -1906 373 -13 c204 -7 455 -17 557
-21 261 -12 760 -12 942 0 554 37 935 147 1205 346 200 148 330 318 389 509
25 84 26 313 0 404 -114 415 -511 663 -1256 785 l-135 22 59 18 c289 86 533
225 663 377 109 128 147 237 147 414 1 131 -18 215 -74 325 -159 315 -593 560
-1145 644 -300 46 -533 50 -1202 23z m882 -278 c256 -29 531 -120 694 -232
260 -176 343 -505 198 -782 -38 -72 -151 -186 -230 -233 -130 -78 -309 -139
-502 -172 -180 -30 -347 -40 -696 -40 l-329 0 0 439 c0 440 7 577 36 726 18
90 57 201 80 226 27 30 200 70 354 83 64 5 289 -3 395 -15z m278 -1730 c512
-31 768 -107 997 -294 163 -133 240 -289 240 -485 0 -157 -46 -283 -150 -415
-234 -294 -662 -421 -1360 -402 -311 8 -544 51 -628 115 -89 67 -161 209 -200
392 -33 154 -42 302 -42 713 l0 387 486 0 c267 0 563 -5 657 -11z"/>
<path d="M4926 3916 c310 -120 573 -397 644 -680 27 -107 27 -274 1 -379 -45
-174 -150 -323 -336 -475 -46 -38 -53 -38 100 0 403 100 735 335 828 586 30
81 29 225 -2 303 -121 314 -519 543 -1118 645 -177 30 -195 30 -117 0z"/>
<path d="M5616 2073 c140 -95 312 -270 382 -388 93 -159 140 -352 129 -534
-18 -311 -184 -570 -500 -782 -60 -40 -81 -59 -67 -59 12 0 86 15 163 34 348
84 612 220 808 415 144 144 206 269 216 436 21 366 -242 644 -786 829 -122 42
-398 116 -431 116 -8 0 31 -30 86 -67z"/>
</g>
</svg>
