<?xml version="1.0" standalone="no"?>
<!DOCTYPE svg PUBLIC "-//W3C//DTD SVG 20010904//EN"
 "http://www.w3.org/TR/2001/REC-SVG-20010904/DTD/svg10.dtd">
<svg version="1.0" xmlns="http://www.w3.org/2000/svg"
 width="1131.000000pt" height="450.000000pt" viewBox="0 0 1131.000000 450.000000"
 preserveAspectRatio="xMidYMid meet">

<g transform="translate(0.000000,450.000000) scale(0.100000,-0.100000)"
fill="#000000" stroke="none">
<path d="M210 4192 c0 -26 5 -33 28 -38 445 -97 685 -290 785 -634 22 -75 22
-78 25 -1170 2 -768 0 -1118 -8 -1173 -36 -253 -136 -443 -305 -580 -93 -75
-242 -144 -395 -180 l-130 -32 0 -32 0 -32 62 4 c86 7 598 24 913 30 143 3
293 8 333 11 l72 6 0 1903 0 1902 -262 7 c-316 8 -756 23 -965 32 l-153 7 0
-31z"/>
<path d="M2565 4199 c-225 -9 -427 -18 -447 -18 l-38 -1 0 -1904 0 -1904 168
-6 c92 -3 277 -11 412 -16 803 -34 1073 -35 1415 -5 587 52 973 200 1246 474
175 177 251 350 251 571 -1 145 -23 242 -85 365 -154 306 -544 517 -1137 615
-206 34 -202 26 -48 80 413 142 645 337 712 596 20 78 21 238 1 322 -93 394
-536 701 -1165 806 -302 51 -574 56 -1285 25z m1025 -289 c451 -79 731 -251
829 -510 22 -57 25 -81 25 -200 1 -116 -3 -144 -22 -200 -101 -287 -434 -467
-961 -520 -57 -5 -270 -10 -473 -10 l-371 0 6 483 c6 573 20 694 94 859 26 58
26 58 94 78 65 20 136 34 209 44 19 2 127 3 240 1 156 -2 235 -8 330 -25z
m270 -1719 c448 -39 665 -107 888 -278 297 -227 345 -601 116 -900 -203 -265
-525 -387 -1088 -412 -291 -13 -583 6 -754 50 -147 37 -206 84 -275 217 -69
133 -101 276 -117 522 -11 172 -13 803 -2 814 10 12 1082 0 1232 -13z"/>
<path d="M4800 4106 c0 -2 17 -10 38 -16 119 -39 278 -138 394 -248 137 -129
224 -268 270 -429 29 -102 31 -306 4 -398 -47 -157 -150 -309 -290 -427 -41
-35 -73 -64 -71 -66 6 -7 195 42 289 75 223 77 419 202 548 349 200 227 184
501 -43 721 -212 207 -488 329 -919 406 -169 31 -220 38 -220 33z"/>
<path d="M10174 2863 c-24 -24 -42 -71 -50 -131 -5 -42 -10 -52 -25 -52 -16 0
-19 -8 -19 -45 0 -38 3 -45 20 -45 19 0 20 -7 20 -199 l0 -200 30 1 30 1 0
199 0 198 30 0 c29 0 30 2 30 45 0 44 -1 45 -31 45 -31 0 -32 1 -26 40 7 52
24 73 52 66 20 -5 23 -1 29 36 5 29 3 44 -6 50 -22 13 -66 9 -84 -9z"/>
<path d="M7750 2851 c-21 -40 -5 -111 25 -111 20 0 35 32 35 72 0 54 -38 78
-60 39z"/>
<path d="M5940 2531 c0 -383 -16 -344 135 -340 l95 3 0 53 0 53 -80 0 -80 0 0
100 0 100 60 0 60 0 0 50 0 50 -60 0 -60 0 0 80 0 80 85 0 85 0 0 50 0 50
-120 0 -120 0 0 -329z"/>
<path d="M7440 2525 l0 -335 35 0 35 0 0 335 0 335 -35 0 -35 0 0 -335z"/>
<path d="M9498 2800 c-24 -18 -28 -29 -28 -71 0 -37 -4 -49 -15 -49 -11 0 -15
-12 -15 -45 0 -33 4 -45 15 -45 13 0 15 -22 15 -141 0 -215 19 -263 101 -257
l44 3 3 53 3 52 -26 -12 c-21 -10 -29 -9 -43 5 -14 14 -17 43 -20 157 l-4 140
41 0 41 0 0 44 c0 44 0 45 -37 48 l-38 3 -5 68 -5 69 -27 -22z"/>
<path d="M6558 2670 c-14 -10 -36 -43 -49 -72 -20 -45 -23 -69 -24 -163 0
-123 12 -168 55 -215 23 -25 36 -30 73 -30 33 0 53 6 71 23 24 20 25 25 15 64
l-11 42 -28 -21 c-51 -37 -92 -11 -110 69 l-8 32 97 3 96 3 3 58 c4 76 -21
162 -58 198 -34 35 -85 39 -122 9z m92 -92 c11 -12 20 -27 20 -32 0 -6 3 -21
6 -33 6 -22 4 -23 -60 -23 -72 0 -75 4 -56 57 12 30 36 53 57 53 7 0 21 -10
33 -22z"/>
<path d="M6872 2668 c-19 -19 -22 -20 -22 -5 0 12 -8 17 -30 17 l-30 0 0 -239
c0 -151 4 -242 10 -246 6 -3 19 -3 30 0 19 6 20 15 20 153 0 81 5 163 10 183
14 48 42 74 67 60 17 -8 21 -4 32 36 9 37 9 48 -1 55 -24 15 -63 8 -86 -14z"/>
<path d="M7908 2676 c-10 -7 -25 -29 -33 -49 -31 -75 -14 -140 57 -213 44 -46
49 -55 46 -90 -2 -32 -7 -40 -26 -42 -13 -2 -34 3 -47 12 -21 14 -23 14 -29
-7 -17 -64 7 -97 71 -97 53 0 89 39 99 107 11 77 -8 131 -67 184 -45 40 -50
49 -47 80 2 27 8 35 26 37 13 2 30 -2 38 -9 19 -16 25 -9 31 38 5 35 2 40 -21
51 -35 16 -76 15 -98 -2z"/>
<path d="M8282 2678 c-13 -7 -21 -17 -17 -26 3 -7 5 -27 5 -44 0 -23 4 -29 16
-24 46 18 63 17 83 -3 27 -27 28 -61 1 -61 -79 0 -131 -69 -132 -175 0 -74 7
-102 35 -132 26 -30 80 -31 104 -3 10 11 20 20 24 20 4 0 9 -9 12 -20 6 -23
39 -27 56 -6 8 10 9 21 3 33 -5 10 -12 90 -15 178 -6 179 -16 225 -54 255 -28
22 -83 26 -121 8z m108 -307 c0 -66 -15 -91 -55 -91 -27 0 -35 17 -35 71 0 46
27 79 65 79 24 0 25 -3 25 -59z"/>
<path d="M8747 2673 c-11 -11 -17 -13 -17 -5 0 7 -13 12 -30 12 l-30 0 2 -337
3 -338 28 -3 27 -3 0 99 0 99 50 -5 c45 -4 52 -2 78 26 41 44 57 109 57 232 0
119 -19 186 -62 220 -31 25 -83 26 -106 3z m70 -97 c26 -23 28 -30 32 -112 4
-105 -9 -156 -44 -172 -34 -16 -40 -15 -59 4 -13 12 -16 40 -16 144 0 122 1
130 22 144 29 21 32 20 65 -8z"/>
<path d="M9008 2679 c-12 -7 -18 -22 -18 -48 0 -47 5 -52 41 -39 37 13 74 -9
81 -46 5 -22 2 -26 -19 -26 -47 0 -94 -31 -114 -74 -28 -62 -26 -173 4 -217
29 -44 84 -52 118 -18 17 17 23 19 30 8 5 -8 9 -17 9 -21 0 -5 11 -8 24 -8 27
0 40 23 27 48 -5 9 -11 91 -13 182 -5 177 -16 223 -59 254 -26 18 -85 21 -111
5z m106 -294 c-1 -66 -12 -94 -39 -101 -41 -10 -58 12 -52 70 5 55 26 79 67
74 22 -3 25 -8 24 -43z"/>
<path d="M9330 2670 c-16 -16 -20 -17 -20 -4 0 11 -8 14 -32 12 -30 -3 -33 -6
-32 -33 1 -16 2 -125 3 -241 l1 -211 28 1 27 1 5 175 c4 146 8 181 23 203 20
30 21 31 47 17 17 -9 21 -5 30 31 6 23 9 47 6 55 -8 21 -63 17 -86 -6z"/>
<path d="M9871 2668 c-47 -43 -65 -104 -66 -218 0 -174 40 -260 122 -260 82 0
125 86 125 250 0 118 -16 177 -59 222 -34 35 -88 38 -122 6z m95 -93 c34 -52
30 -232 -5 -276 -26 -33 -66 -20 -81 26 -13 38 -16 181 -5 217 18 59 63 75 91
33z"/>
<path d="M10908 2670 c-14 -10 -36 -43 -49 -72 -21 -46 -24 -68 -24 -163 0
-123 12 -169 55 -215 23 -25 36 -30 73 -30 33 0 53 6 71 23 24 21 25 25 14 63
l-12 42 -27 -20 c-50 -37 -92 -10 -109 69 l-8 32 97 3 96 3 -1 75 c0 91 -16
140 -56 180 -35 36 -83 40 -120 10z m78 -78 c14 -9 29 -39 38 -74 l6 -28 -65
0 c-71 0 -74 4 -55 57 17 43 49 63 76 45z"/>
<path d="M6202 2663 c2 -10 29 -120 59 -245 33 -141 59 -228 66 -228 7 0 17
17 22 38 23 86 111 442 111 447 0 4 -15 5 -32 3 l-33 -3 -30 -132 c-17 -72
-33 -134 -36 -137 -3 -3 -18 57 -34 134 l-29 140 -34 0 c-28 0 -34 -3 -30 -17z"/>
<path d="M6980 2671 c0 -6 20 -101 44 -213 25 -112 48 -224 51 -249 8 -54 -5
-86 -41 -99 -21 -8 -24 -16 -24 -60 0 -27 3 -50 8 -50 16 0 72 40 86 62 11 17
136 582 136 615 0 2 -15 3 -32 1 l-33 -3 -30 -160 c-19 -97 -34 -152 -37 -140
-4 11 -19 76 -33 145 -36 169 -32 160 -66 160 -16 0 -29 -4 -29 -9z"/>
<path d="M7710 2635 c0 -33 4 -45 15 -45 12 0 15 -31 17 -197 l3 -198 30 0 30
0 3 243 2 242 -50 0 -50 0 0 -45z"/>
<path d="M10426 2643 c38 -211 92 -448 103 -448 9 0 25 48 46 133 18 73 35
135 38 138 3 3 20 -58 38 -135 32 -137 50 -170 62 -118 3 12 24 112 46 222 23
110 43 210 46 223 5 21 3 23 -26 20 l-32 -3 -26 -135 c-15 -74 -29 -130 -33
-125 -3 6 -19 67 -34 138 -28 123 -47 157 -59 105 -3 -13 -16 -72 -29 -131
-14 -60 -26 -111 -29 -113 -2 -3 -12 39 -22 93 -32 180 -27 168 -63 171 l-33
3 7 -38z"/>
<path d="M5450 2306 c0 -2 24 -19 52 -37 139 -85 319 -250 394 -359 75 -108
134 -256 154 -384 16 -95 8 -309 -14 -391 -23 -84 -95 -229 -149 -301 -71 -93
-223 -233 -325 -299 -50 -32 -90 -60 -88 -62 6 -6 200 37 304 68 444 132 770
378 874 660 20 56 23 82 23 199 0 114 -4 145 -22 197 -112 308 -443 527 -1013
668 -177 43 -190 46 -190 41z"/>
</g>
</svg>
