<?xml version="1.0" standalone="no"?>
<!DOCTYPE svg PUBLIC "-//W3C//DTD SVG 20010904//EN"
 "http://www.w3.org/TR/2001/REC-SVG-20010904/DTD/svg10.dtd">
<svg version="1.0" xmlns="http://www.w3.org/2000/svg"
 width="626.000000pt" height="417.000000pt" viewBox="0 0 626.000000 417.000000"
 preserveAspectRatio="xMidYMid meet">

<g transform="translate(0.000000,417.000000) scale(0.100000,-0.100000)"
fill="#000000" stroke="none">
<path d="M1960 3515 c0 -25 4 -45 9 -45 8 0 25 -69 38 -158 3 -20 10 -31 17
-29 7 3 13 -4 13 -15 2 -17 0 -18 -15 -6 -9 7 3 -10 28 -38 25 -27 47 -49 49
-47 8 5 0 138 -11 183 -20 83 -88 200 -117 200 -6 0 -11 -18 -11 -45z"/>
<path d="M1361 3180 c-7 -25 -15 -52 -18 -60 -3 -8 -9 -69 -13 -135 l-7 -120
-1 116 c-1 64 -4 118 -7 121 -3 2 -24 2 -46 -1 -42 -6 -42 -6 -61 -71 -33
-117 -44 -403 -17 -450 5 -8 9 -10 9 -4 0 8 27 12 77 13 42 1 81 5 87 11 6 6
5 23 -1 47 -15 50 -36 183 -31 189 3 2 10 -26 17 -64 12 -70 40 -166 47 -160
2 2 -3 28 -11 58 -20 79 -45 258 -45 324 0 55 30 147 55 171 5 6 8 9 6 7 -3
-1 -10 10 -17 25 l-11 28 -12 -45z"/>
<path d="M1174 3018 c-19 -82 -32 -382 -18 -435 6 -22 9 25 10 140 1 112 7
205 18 266 9 52 15 96 12 98 -2 2 -12 -29 -22 -69z"/>
<path d="M6240 2860 c0 -5 5 -10 10 -10 6 0 10 5 10 10 0 6 -4 10 -10 10 -5 0
-10 -4 -10 -10z"/>
<path d="M6220 2790 c-24 -8 -24 -8 -2 -9 12 -1 22 -6 22 -12 0 -7 -14 -8 -40
-4 -36 6 -40 5 -40 -14 0 -14 -6 -21 -20 -21 -13 0 -20 -7 -20 -20 0 -13 -7
-20 -20 -20 -13 0 -20 -7 -20 -20 0 -13 -7 -20 -20 -20 -17 0 -20 -7 -20 -40
0 -33 -3 -40 -20 -40 -17 0 -20 -7 -20 -39 0 -29 5 -41 18 -45 9 -2 0 -2 -20
1 -34 5 -38 3 -38 -16 0 -14 -6 -21 -20 -21 -17 0 -20 -7 -20 -40 0 -33 -3
-40 -20 -40 -13 0 -20 -7 -20 -20 0 -13 -7 -20 -20 -20 -18 0 -20 -7 -20 -79
l0 -80 37 -3 c27 -2 39 -8 41 -20 2 -13 -3 -18 -17 -18 -14 0 -21 -6 -21 -20
0 -13 -7 -20 -20 -20 -13 0 -20 7 -20 20 0 13 -7 20 -20 20 -13 0 -20 -7 -20
-20 0 -13 -7 -20 -20 -20 -17 0 -20 -7 -20 -40 0 -39 1 -40 38 -41 20 -1 47 0
60 1 19 1 22 -3 22 -39 0 -34 -3 -41 -20 -41 -18 0 -20 -7 -20 -80 0 -64 -3
-80 -15 -80 -12 0 -15 16 -15 84 0 83 0 83 -24 79 -28 -6 -33 -22 -28 -105 3
-49 7 -58 23 -58 12 0 19 -7 19 -20 0 -13 7 -20 20 -20 13 0 20 -7 20 -19 0
-20 51 -81 68 -81 5 0 12 -13 15 -29 3 -16 13 -35 21 -43 8 -9 13 -24 12 -34
-2 -10 3 -28 10 -39 20 -28 17 -35 -11 -35 -24 0 -25 -3 -25 -61 0 -50 3 -60
15 -55 12 4 15 -4 15 -39 0 -33 -4 -45 -15 -45 -11 0 -15 -11 -15 -40 0 -36
-2 -40 -25 -40 -18 0 -25 -5 -25 -20 0 -13 -7 -20 -20 -20 -17 0 -20 7 -20 40
l0 41 -57 -3 -58 -3 -3 -37 c-2 -22 1 -38 7 -38 6 0 11 9 11 20 0 11 5 20 10
20 6 0 10 -9 10 -20 0 -17 7 -20 40 -20 l40 0 0 -40 c0 -33 -3 -40 -20 -40
-13 0 -20 -7 -20 -20 0 -13 -7 -20 -20 -20 -13 0 -20 -7 -20 -20 0 -13 -7 -20
-20 -20 -13 0 -20 -7 -20 -20 0 -13 -7 -20 -20 -20 -11 0 -20 -6 -20 -14 0
-17 -80 -37 -112 -28 -13 3 -24 -1 -30 -11 -4 -9 -15 -14 -23 -10 -11 4 -13 1
-9 -10 5 -13 1 -15 -23 -8 -15 4 -40 6 -55 4 -20 -3 -28 1 -28 12 0 9 -9 15
-25 15 -27 0 -75 19 -75 30 0 13 -78 42 -97 36 -12 -4 -25 0 -33 9 -7 8 -21
15 -31 15 -15 0 -19 7 -19 34 0 30 -4 34 -31 40 -17 3 -62 6 -100 6 l-69 0 0
-40 c0 -33 -3 -40 -20 -40 -17 0 -20 -7 -20 -40 0 -33 -3 -40 -20 -40 -13 0
-20 -7 -20 -20 0 -13 -7 -20 -20 -20 -17 0 -20 -7 -20 -40 0 -33 -3 -40 -19
-40 -16 0 -20 -8 -23 -42 -2 -32 -7 -42 -18 -40 -11 2 -10 -1 3 -12 10 -8 18
-18 18 -23 -1 -4 4 -8 10 -8 6 0 18 -11 27 -25 l14 -25 -21 25 c-11 14 -21 20
-21 14 0 -22 163 -165 239 -210 87 -51 178 -87 193 -78 16 10 4 136 -17 167
-10 15 -16 29 -14 30 145 105 293 249 286 278 -2 8 -2 11 0 7 2 -4 11 -4 18
-2 10 4 29 -23 62 -90 54 -109 39 -102 188 -81 138 20 140 20 143 -12 1 -15 5
-29 10 -32 19 -15 6 -44 -37 -79 -158 -130 -317 -184 -601 -203 -211 -15 -389
-7 -500 22 -47 12 -96 21 -110 20 -20 -1 -22 1 -10 10 13 9 13 10 0 6 -8 -2
-26 3 -40 13 -36 24 -63 33 -53 17 4 -6 6 -20 5 -30 -2 -10 3 -17 12 -17 9 0
16 -4 16 -10 0 -5 7 -10 15 -10 8 0 15 5 15 10 0 6 -6 10 -14 10 -8 0 -16 7
-19 14 -5 12 -1 13 16 7 30 -11 34 -41 7 -48 -21 -6 -22 -10 -17 -66 5 -53 3
-62 -17 -81 -13 -11 -26 -31 -30 -43 -5 -14 -15 -23 -27 -23 -11 0 -17 -4 -14
-10 3 -5 -3 -10 -14 -10 -12 0 -21 -4 -21 -10 0 -6 -33 -10 -80 -10 -73 0 -80
-2 -80 -20 0 -13 -7 -20 -20 -20 -15 0 -20 -7 -20 -25 l0 -25 155 0 c130 0
155 2 163 16 8 14 10 14 25 0 14 -14 99 -16 830 -16 449 0 823 3 831 6 15 6
16 136 16 1400 0 767 -4 1394 -8 1393 -4 -1 -18 -5 -32 -9z m-140 -290 c0 -5
-2 -10 -4 -10 -3 0 -8 5 -11 10 -3 6 -1 10 4 10 6 0 11 -4 11 -10z m0 -41 c0
-5 -9 -9 -20 -9 -22 0 -27 -15 -7 -23 9 -4 8 -8 -3 -16 -8 -6 -19 -11 -25 -11
-5 0 -3 4 5 10 18 11 10 21 -19 23 -25 2 -27 10 -6 27 13 11 14 10 9 -4 -4
-12 -2 -15 9 -10 8 3 17 15 21 26 4 18 7 19 20 8 9 -7 16 -16 16 -21z m-20
-126 c0 -13 6 -23 14 -23 8 0 18 -4 21 -10 4 -6 -13 -10 -44 -10 -44 0 -51 3
-51 20 0 15 7 20 25 20 16 0 25 6 25 15 0 8 -5 15 -11 15 -5 0 -7 5 -3 11 9
15 24 -9 24 -38z m60 9 c0 -15 -2 -15 -10 -2 -13 20 -13 33 0 25 6 -3 10 -14
10 -23z m-22 -10 c2 -7 -3 -12 -12 -12 -9 0 -16 7 -16 16 0 17 22 14 28 -4z
m72 -42 c0 -4 -11 -10 -25 -12 -20 -4 -25 -1 -25 14 0 11 5 16 10 13 6 -3 10
-1 10 6 0 8 4 8 15 -1 8 -7 15 -16 15 -20z m-229 -47 c2 -24 2 -25 6 -5 5 27
29 29 36 3 3 -13 0 -18 -8 -15 -6 3 -18 -2 -25 -11 -12 -14 -11 -18 0 -25 8
-5 11 -12 7 -16 -3 -4 -13 -1 -22 6 -12 10 -13 16 -4 26 8 10 8 14 0 14 -6 0
-11 11 -11 25 0 34 20 32 21 -2z m296 -517 c-4 -9 -11 -16 -17 -16 -11 0 -14
33 -3 44 11 10 26 -11 20 -28z m-1254 -748 c3 -10 9 -10 26 0 27 16 36 15 23
-1 -9 -10 -3 -12 26 -9 33 3 35 2 20 -11 -10 -8 -18 -20 -18 -26 0 -7 -4 -10
-9 -7 -5 3 -11 -1 -15 -9 -3 -8 -15 -15 -26 -15 -11 0 -20 -5 -20 -12 0 -19
-26 12 -35 41 -6 20 -4 23 9 18 19 -7 22 13 4 31 -8 8 -9 12 -1 12 6 0 13 -6
16 -12z m-183 -304 c0 -14 -3 -14 -15 -4 -8 7 -15 14 -15 16 0 2 7 4 15 4 8 0
15 -7 15 -16z m40 -84 c0 -5 -2 -10 -4 -10 -3 0 -8 5 -11 10 -3 6 -1 10 4 10
6 0 11 -4 11 -10z m1010 -185 c0 -8 -7 -15 -15 -15 -8 0 -15 7 -15 15 0 8 7
15 15 15 8 0 15 -7 15 -15z m-984 -183 c8 -5 4 -13 -11 -24 -21 -16 -24 -16
-29 -2 -11 29 13 44 40 26z m282 -49 c2 -8 -5 -13 -17 -13 -12 0 -21 6 -21 16
0 18 31 15 38 -3z"/>
<path d="M1967 2654 c-83 -167 -214 -354 -360 -511 -47 -50 -89 -88 -93 -85
-4 4 -4 1 0 -5 5 -8 1 -13 -11 -14 -12 0 -14 -2 -4 -6 16 -7 127 101 228 222
86 102 105 123 76 80 -35 -51 -124 -159 -202 -244 -41 -45 -70 -81 -65 -80 22
4 33 -2 39 -21 3 -11 13 -20 22 -20 16 0 53 -36 53 -52 0 -4 16 -8 35 -8 28 0
35 -4 35 -20 0 -16 7 -20 36 -20 37 0 73 -23 54 -35 -6 -4 -8 -11 -4 -16 4 -6
11 -6 20 2 7 6 11 16 7 22 -3 5 -1 7 4 4 16 -10 23 18 10 34 -10 11 -9 11 5 0
14 -10 24 -3 71 56 30 37 82 111 116 163 34 52 61 91 61 87 0 -14 -108 -182
-173 -269 -84 -113 -79 -116 13 -12 73 82 194 280 236 385 14 35 31 78 39 94
17 38 38 116 32 121 -2 3 -14 -24 -27 -58 -28 -77 -87 -208 -94 -208 -3 0 8
28 24 63 27 61 51 131 84 244 l14 51 -58 31 c-32 17 -65 31 -74 31 -9 0 -16 8
-16 18 0 11 -13 21 -36 28 l-36 12 -23 -52 c-28 -64 -115 -213 -144 -246 -12
-14 -5 2 15 34 42 68 138 265 132 271 -2 2 -21 -29 -41 -71z m144 -447 c-10
-9 -11 -8 -5 6 3 10 9 15 12 12 3 -3 0 -11 -7 -18z"/>
<path d="M4888 2243 c6 -2 18 -2 25 0 6 3 1 5 -13 5 -14 0 -19 -2 -12 -5z"/>
<path d="M5471 2164 c0 -11 3 -14 6 -6 3 7 2 16 -1 19 -3 4 -6 -2 -5 -13z"/>
<path d="M5381 2114 c0 -11 3 -14 6 -6 3 7 2 16 -1 19 -3 4 -6 -2 -5 -13z"/>
<path d="M5491 2084 c0 -11 3 -14 6 -6 3 7 2 16 -1 19 -3 4 -6 -2 -5 -13z"/>
<path d="M5048 2043 c7 -3 16 -2 19 1 4 3 -2 6 -13 5 -11 0 -14 -3 -6 -6z"/>
<path d="M5168 2043 c6 -2 18 -2 25 0 6 3 1 5 -13 5 -14 0 -19 -2 -12 -5z"/>
<path d="M5258 2043 c12 -2 32 -2 45 0 12 2 2 4 -23 4 -25 0 -35 -2 -22 -4z"/>
<path d="M5428 2043 c12 -2 32 -2 45 0 12 2 2 4 -23 4 -25 0 -35 -2 -22 -4z"/>
<path d="M5720 1990 c0 -13 -7 -20 -20 -20 -13 0 -20 -7 -20 -20 0 -15 7 -20
26 -20 26 0 54 20 54 40 0 12 -24 40 -34 40 -3 0 -6 -9 -6 -20z"/>
<path d="M5534 1985 c-3 -8 -15 -17 -26 -21 -11 -3 -17 -12 -14 -19 3 -8 0
-16 -7 -18 -7 -2 -8 -8 -4 -13 5 -5 13 -1 18 8 5 10 16 15 24 12 8 -4 15 -1
15 6 0 6 5 8 10 5 6 -4 10 7 10 24 0 32 -16 42 -26 16z"/>
<path d="M4983 1883 c9 -2 23 -2 30 0 6 3 -1 5 -18 5 -16 0 -22 -2 -12 -5z"/>
<path d="M5227 1883 c-4 -3 -7 -41 -7 -84 0 -43 -5 -80 -10 -82 -6 -3 -5 -4 2
-3 9 2 14 28 16 84 l3 81 62 4 62 3 -61 2 c-33 1 -64 -1 -67 -5z"/>
<path d="M5472 1884 c14 -4 18 -20 21 -80 l3 -74 0 77 c-1 70 -3 78 -21 80
-15 1 -16 1 -3 -3z"/>
<path d="M5082 1845 c0 -16 2 -22 5 -12 2 9 2 23 0 30 -3 6 -5 -1 -5 -18z"/>
<path d="M5183 1835 c0 -22 2 -30 4 -17 2 12 2 30 0 40 -3 9 -5 -1 -4 -23z"/>
<path d="M5447 1863 c-3 -5 -1 -17 4 -28 7 -17 8 -17 8 8 1 27 -4 34 -12 20z"/>
<path d="M5513 1830 c0 -25 2 -35 4 -22 2 12 2 32 0 45 -2 12 -4 2 -4 -23z"/>
<path d="M5252 1843 c13 -3 18 -18 21 -61 l3 -57 2 63 c2 59 1 62 -20 61 -17
-1 -18 -3 -6 -6z"/>
<path d="M5312 1783 l2 -68 3 62 c3 54 7 62 26 66 18 4 17 5 -5 6 l-28 1 2
-67z"/>
<path d="M4733 1775 c0 -27 2 -38 4 -22 2 15 2 37 0 50 -2 12 -4 0 -4 -28z"/>
<path d="M4952 1795 c0 -16 2 -22 5 -12 2 9 2 23 0 30 -3 6 -5 -1 -5 -18z"/>
<path d="M5032 1795 c0 -16 2 -22 5 -12 2 9 2 23 0 30 -3 6 -5 -1 -5 -18z"/>
<path d="M5070 1799 c0 -5 5 -7 10 -4 6 3 10 8 10 11 0 2 -4 4 -10 4 -5 0 -10
-5 -10 -11z"/>
<path d="M1834 1792 c5 -8 -116 -130 -227 -230 l-47 -43 45 -67 c75 -112 90
-132 98 -132 5 0 0 12 -11 28 -30 43 -64 102 -60 102 3 0 19 -20 37 -45 19
-27 37 -43 44 -39 7 4 9 4 5 -1 -4 -4 -3 -16 3 -27 8 -15 13 -17 25 -7 8 6 14
15 14 18 0 4 36 44 80 88 44 44 80 86 80 92 0 6 5 11 10 11 6 0 10 7 10 15 0
8 7 15 15 15 26 0 17 26 -30 82 -25 30 -45 58 -45 61 0 3 25 -20 56 -51 52
-52 54 -54 28 -16 -60 85 -115 154 -125 154 -6 0 -8 -4 -5 -8z"/>
<path d="M5417 1783 c27 -4 32 -9 36 -36 4 -31 4 -31 5 6 2 37 2 37 -35 35
-37 -1 -37 -1 -6 -5z"/>
<path d="M5082 1750 c0 -19 2 -27 5 -17 2 9 2 25 0 35 -3 9 -5 1 -5 -18z"/>
<path d="M5122 1750 c0 -14 2 -19 5 -12 2 6 2 18 0 25 -3 6 -5 1 -5 -13z"/>
<path d="M4858 1737 c-3 -19 -2 -25 4 -19 6 6 8 18 6 28 -3 14 -5 12 -10 -9z"/>
<path d="M4988 1743 c7 -3 16 -2 19 1 4 3 -2 6 -13 5 -11 0 -14 -3 -6 -6z"/>
<path d="M5018 1713 c7 -3 16 -2 19 1 4 3 -2 6 -13 5 -11 0 -14 -3 -6 -6z"/>
<path d="M3803 1507 c-23 -7 -45 -15 -49 -19 -4 -5 -18 -8 -30 -8 -13 0 -27
-6 -31 -13 -4 -8 -29 -22 -55 -32 -27 -10 -48 -20 -48 -22 0 -3 8 -2 18 2 48
19 192 36 252 30 69 -7 173 -36 153 -42 -9 -3 -6 -11 7 -26 11 -11 20 -27 20
-34 0 -7 6 -13 13 -13 11 0 37 -63 37 -91 0 -7 8 -18 18 -25 16 -12 15 -13 -9
-14 -30 0 -183 -76 -232 -115 -26 -21 -33 -33 -29 -51 3 -15 11 -24 23 -24 11
0 19 -4 19 -10 0 -5 9 -10 19 -10 11 0 23 -9 26 -21 5 -14 13 -19 26 -16 13 3
26 -4 40 -21 14 -18 23 -23 26 -14 3 7 23 12 51 12 l47 0 53 -103 c28 -56 61
-110 72 -120 20 -17 29 -10 11 9 -12 11 -81 149 -81 160 0 5 20 -26 45 -69 25
-43 50 -75 55 -72 6 3 7 -1 4 -9 -9 -24 2 -19 46 20 25 23 39 43 36 53 -3 9 9
32 30 54 46 49 56 41 12 -9 l-33 -39 32 25 c17 14 39 40 48 58 9 17 20 32 25
32 5 0 10 10 12 23 2 16 9 22 26 21 26 -1 28 8 7 26 -8 7 -15 18 -15 26 0 7
-30 43 -66 80 -37 37 -53 57 -36 45 17 -12 59 -52 93 -89 57 -62 60 -64 39
-25 -13 23 -67 88 -121 145 -55 57 -99 108 -99 115 0 14 -99 97 -141 118 -21
11 -28 12 -32 2 -6 -17 -38 11 -35 30 4 20 -39 52 -88 65 -58 16 -163 18 -211
5z"/>
<path d="M5880 1350 c0 -11 5 -20 10 -20 6 0 10 9 10 20 0 11 -4 20 -10 20 -5
0 -10 -9 -10 -20z"/>
<path d="M2769 981 c-14 -11 -39 -23 -55 -27 -16 -3 -45 -18 -64 -33 -19 -14
-47 -32 -62 -40 -15 -8 -32 -27 -39 -42 -6 -16 -15 -29 -19 -29 -11 0 -49 -81
-56 -121 -5 -30 -11 -38 -33 -42 -16 -3 -39 -3 -52 0 -36 9 -14 -9 59 -48 34
-18 95 -59 134 -91 82 -68 140 -96 218 -108 88 -14 173 -31 205 -41 19 -6 31
-6 33 1 2 5 27 10 55 10 29 0 69 5 91 11 45 12 136 93 136 120 0 11 -3 19 -6
19 -3 0 -43 -18 -89 -41 -67 -32 -100 -42 -158 -46 -136 -10 -216 17 -209 73
3 19 -1 24 -17 24 -12 0 -21 6 -21 15 0 8 -4 15 -9 15 -5 0 -13 10 -17 23 -4
12 -10 24 -14 27 -4 3 -11 23 -17 45 -7 29 -14 39 -26 37 -27 -5 -20 31 10 53
69 51 223 194 223 207 0 4 -8 8 -17 8 -10 0 -36 6 -58 14 -78 27 -100 28 -126
7z m48 3 c-3 -3 -12 -4 -19 -1 -8 3 -5 6 6 6 11 1 17 -2 13 -5z m493 -484 c0
-5 -5 -10 -11 -10 -5 0 -7 5 -4 10 3 6 8 10 11 10 2 0 4 -4 4 -10z"/>
<path d="M2930 985 c19 -7 44 -13 55 -13 13 0 7 5 -15 13 -19 7 -44 13 -55 13
-13 0 -7 -5 15 -13z"/>
<path d="M4690 765 c0 -5 5 -17 10 -25 5 -8 10 -10 10 -5 0 6 -5 17 -10 25 -5
8 -10 11 -10 5z"/>
<path d="M4460 466 c0 -2 7 -7 16 -10 8 -3 12 -2 9 4 -6 10 -25 14 -25 6z"/>
</g>
</svg>
